<svg xmlns="http://www.w3.org/2000/svg" width="840" height="500" viewBox="0 0 840 500" role="img"><title>入力と評価後を重ねる</title><g font-family="Segoe UI, Noto Sans JP, sans-serif"><text x="420" y="48" font-size="30" text-anchor="middle" fill="#244967" stroke="#fff" stroke-width="4" stroke-linejoin="round" paint-order="stroke">入力と評価後を重ねる</text><path d="M274 106 Q281 188 257 258 Q232 330 198 397 L295 409 Q365 309 386 235 Q405 167 367 106Z" fill="#58c8bc" fill-opacity=".72" stroke="#159c95" stroke-width="3"/><polyline points="326,113 337,202 354,292 371,387" fill="none" stroke="#8096aa" stroke-width="7" stroke-dasharray="13 10"/><circle cx="326" cy="113" r="10" fill="#c6d4df" stroke="#fff" stroke-width="3"/><circle cx="337" cy="202" r="10" fill="#c6d4df" stroke="#fff" stroke-width="3"/><circle cx="354" cy="292" r="10" fill="#c6d4df" stroke="#fff" stroke-width="3"/><circle cx="371" cy="387" r="10" fill="#c6d4df" stroke="#fff" stroke-width="3"/><rect x="417" y="236" width="80" height="166" rx="40" fill="#a7d9ff" stroke="#268ddb" stroke-width="5"/><polyline points="326,113 326,206 300,296 256,385" fill="none" stroke="#fff" stroke-width="13"/><polyline points="326,113 326,206 300,296 256,385" fill="none" stroke="#ef8a17" stroke-width="7"/><circle cx="326" cy="113" r="11" fill="#ef8a17" stroke="#fff" stroke-width="3"/><circle cx="326" cy="206" r="11" fill="#ef8a17" stroke="#fff" stroke-width="3"/><circle cx="300" cy="296" r="11" fill="#ef8a17" stroke="#fff" stroke-width="3"/><circle cx="256" cy="385" r="11" fill="#ef8a17" stroke="#fff" stroke-width="3"/><circle cx="256" cy="385" r="36" fill="#ffca77" fill-opacity=".48" stroke="#ef8a17" stroke-width="4"/><line x1="99" y1="451" x2="738" y2="451" stroke="#9dacb7" stroke-width="3" stroke-dasharray="5 9"/><text x="493" y="146" font-size="22" text-anchor="start" fill="#244967" stroke="#fff" stroke-width="4" stroke-linejoin="round" paint-order="stroke">入力ポーズ</text><text x="55" y="203" font-size="22" text-anchor="start" fill="#244967" stroke="#fff" stroke-width="4" stroke-linejoin="round" paint-order="stroke">評価後の位置</text><text x="55" y="405" font-size="22" text-anchor="start" fill="#244967" stroke="#fff" stroke-width="4" stroke-linejoin="round" paint-order="stroke">実効半径</text><text x="512" y="327" font-size="22" text-anchor="start" fill="#244967" stroke="#fff" stroke-width="4" stroke-linejoin="round" paint-order="stroke">コリジョン</text><text x="420" y="487" font-size="18" text-anchor="middle" fill="#244967" stroke="#fff" stroke-width="4" stroke-linejoin="round" paint-order="stroke">概念図・Component Space</text><path d="M471 153 L390 281" fill="none" stroke="#8096aa" stroke-width="2"/><path d="M219 209 L309 207" fill="none" stroke="#ef8a17" stroke-width="2"/><path d="M179 402 L221 393" fill="none" stroke="#ef8a17" stroke-width="2"/></g></svg>